<?xml version="1.0" standalone="no"?>
<!DOCTYPE svg PUBLIC "-//W3C//DTD SVG 20010904//EN"
 "http://www.w3.org/TR/2001/REC-SVG-20010904/DTD/svg10.dtd">
<svg version="1.0" xmlns="http://www.w3.org/2000/svg"
 width="700.000000pt" height="700.000000pt" viewBox="0 0 700.000000 700.000000"
 preserveAspectRatio="xMidYMid meet">
<metadata>
Created by potrace 1.11, written by Peter Selinger 2001-2013
</metadata>
<g transform="translate(0.000000,700.000000) scale(0.100000,-0.100000)"
fill="#000000" stroke="none">
<path d="M3440 5900 c-189 -8 -223 -11 -392 -36 -239 -35 -466 -96 -672 -179
-464 -186 -817 -467 -1075 -856 -179 -269 -302 -608 -329 -904 l-7 -79 -76
-22 c-416 -115 -692 -498 -666 -923 21 -331 231 -633 533 -767 33 -14 54 -30
51 -37 -2 -7 -133 -425 -291 -931 -158 -505 -290 -925 -293 -932 -4 -12 100
-14 646 -14 l651 0 0 23 c0 12 -5 49 -10 82 -20 117 -12 392 16 562 l5 32 72
-60 c387 -326 908 -539 1502 -615 196 -26 596 -26 790 -1 595 78 1126 295
1504 615 43 38 66 51 71 42 4 -6 13 -64 20 -129 12 -113 9 -405 -6 -508 l-6
-43 652 0 c547 0 651 2 647 14 -3 7 -135 427 -293 932 -158 506 -289 924 -291
931 -3 7 18 23 51 37 243 107 421 314 503 583 23 77 26 106 27 233 1 121 -3
159 -22 228 -43 159 -108 275 -222 395 -114 122 -262 210 -424 252 l-79 21
-22 110 c-41 204 -106 383 -200 554 -137 248 -371 491 -630 654 -91 58 -302
167 -385 200 l-45 18 100 51 100 50 -100 34 c-216 73 -522 149 -745 184 l-74
12 29 23 c16 12 67 45 114 73 46 28 80 51 75 51 -5 0 -64 7 -131 15 -67 8
-180 17 -250 20 -71 3 -153 7 -183 9 -30 1 -138 0 -240 -4z m-941 -1411 c272
-43 581 -143 894 -291 l107 -51 108 51 c632 299 1209 391 1572 251 162 -62
282 -170 371 -332 l26 -49 39 48 c47 58 109 104 139 104 56 0 120 -102 163
-260 27 -100 88 -403 104 -515 13 -97 25 -91 27 14 1 53 1 53 29 46 55 -13
159 -80 218 -141 70 -70 135 -189 154 -280 18 -84 8 -245 -18 -318 -31 -85
-78 -159 -145 -226 -51 -51 -157 -120 -185 -120 -5 0 -22 43 -38 95 -15 52
-31 95 -34 95 -3 0 -15 -37 -27 -83 -13 -45 -46 -129 -74 -186 -43 -87 -65
-118 -133 -186 -65 -67 -97 -90 -166 -123 -47 -22 -112 -48 -145 -57 -90 -23
-282 -30 -387 -12 -49 8 -88 13 -88 13 0 -1 14 -39 30 -85 62 -168 73 -332 35
-513 -93 -439 -528 -813 -1105 -947 -286 -67 -654 -67 -940 0 -577 134 -1012
508 -1105 947 -38 181 -27 345 35 513 16 46 30 84 30 85 0 0 -39 -5 -87 -13
-106 -18 -298 -11 -388 12 -33 9 -98 35 -145 57 -118 56 -226 165 -292 293
-46 90 -98 237 -98 278 0 38 -16 5 -45 -90 -16 -51 -32 -93 -37 -93 -19 0
-106 50 -147 84 -139 116 -212 274 -212 455 1 156 58 297 166 407 59 59 162
126 218 139 26 7 27 6 28 -31 0 -22 3 -57 7 -79 7 -37 9 -34 20 50 7 50 29
169 48 265 70 353 138 510 219 510 30 0 92 -46 139 -104 l39 -48 26 49 c130
238 331 362 636 393 106 11 262 3 414 -21z"/>
<path d="M3207 2518 c-37 -50 -51 -104 -50 -198 1 -135 43 -220 108 -220 67 0
108 86 108 225 0 141 -41 225 -109 225 -26 0 -39 -7 -57 -32z"/>
<path d="M3677 2518 c-37 -50 -51 -104 -50 -198 1 -135 43 -220 108 -220 67 0
107 85 107 225 0 141 -40 225 -108 225 -26 0 -39 -7 -57 -32z"/>
<path d="M4325 2014 c-43 -11 -105 -36 -105 -43 0 -5 37 -16 83 -26 119 -25
183 -52 227 -94 34 -32 80 -115 105 -186 6 -19 7 -19 17 -2 20 36 22 131 3
187 -19 57 -71 117 -127 146 -33 17 -160 28 -203 18z"/>
<path d="M4279 1684 c-303 -279 -465 -389 -663 -451 -110 -34 -264 -36 -381
-4 -106 28 -255 102 -390 192 -150 101 -138 94 -127 72 27 -50 113 -155 181
-221 291 -282 665 -319 1002 -97 93 62 258 226 331 330 62 89 162 264 156 271
-3 2 -52 -39 -109 -92z"/>
<path d="M2554 1726 c-74 -32 -134 -132 -134 -222 0 -36 36 -160 49 -168 5 -3
18 34 30 82 42 165 76 214 184 266 70 34 71 35 43 45 -38 15 -135 13 -172 -3z"/>
</g>
</svg>
