<?xml version="1.0" encoding="UTF-8" standalone="no"?>
<svg
   xmlns:dc="http://purl.org/dc/elements/1.1/"
   xmlns:cc="http://creativecommons.org/ns#"
   xmlns:rdf="http://www.w3.org/1999/02/22-rdf-syntax-ns#"
   xmlns:svg="http://www.w3.org/2000/svg"
   xmlns="http://www.w3.org/2000/svg"
   xmlns:sodipodi="http://sodipodi.sourceforge.net/DTD/sodipodi-0.dtd"
   xmlns:inkscape="http://www.inkscape.org/namespaces/inkscape"
   viewBox="0 0 64 64"
   enable-background="new 0 0 64 64"
   id="svg3336"
   version="1.1"
   inkscape:version="0.91 r13725"
   sodipodi:docname="tree.svg">
  <metadata
     id="metadata3474">
    <rdf:RDF>
      <cc:Work
         rdf:about="">
        <dc:format>image/svg+xml</dc:format>
        <dc:type
           rdf:resource="http://purl.org/dc/dcmitype/StillImage" />
        <dc:title></dc:title>
      </cc:Work>
    </rdf:RDF>
  </metadata>
  <defs
     id="defs3472" />
  <sodipodi:namedview
     pagecolor="#ffffff"
     bordercolor="#666666"
     borderopacity="1"
     objecttolerance="10"
     gridtolerance="10"
     guidetolerance="10"
     inkscape:pageopacity="0"
     inkscape:pageshadow="2"
     inkscape:window-width="1916"
     inkscape:window-height="1033"
     id="namedview3470"
     showgrid="false"
     inkscape:zoom="28.68"
     inkscape:cx="20.859813"
     inkscape:cy="6.6706125"
     inkscape:window-x="0"
     inkscape:window-y="20"
     inkscape:window-maximized="0"
     inkscape:current-layer="svg3336" />
  <path
     d="m 1.3463867,59.666397 0.6661304,0 0,4.3331 -0.6661304,0 z"
     id="path3394"
     inkscape:connector-curvature="0"
     style="fill:#d3976e" />
  <path
     d="m 2.0130175,59.666397 -0.2478198,0 c 0.00233,0.029 0.00483,0.057 0.00483,0.091 0,0.379986 -0.1266593,0.379986 -0.1266593,0.760072 0,0.379186 0.1266593,0.379186 0.1266593,0.758272 0,0.379286 -0.1266593,0.379286 -0.1266593,0.758472 0,0.378786 0.1266593,0.378786 0.1266593,0.758272 0,0.378486 -0.1266593,0.378486 -0.1266593,0.757272 0,0.237791 0.034499,0.325288 0.070167,0.450283 l 0.2994839,0 0,-4.3331"
     id="path3396"
     inkscape:connector-curvature="0"
     style="fill:#89664c" />
  <path
     d="m 1.5013784,54.481679 c -0.3171493,0.454683 -0.70612881,-0.361686 -1.20776855,0.340488 -0.50163974,0.702174 -0.24148696,1.308761 -0.0869958,1.767074 0.30731683,0.910767 -0.30848349,1.205766 0.0953285,1.968557 0.40381166,0.762472 -0.17632387,1.129949 0.58413539,1.554923 0.76045917,0.424984 0.38514597,-0.488782 1.16493737,0.053 0.7801252,0.54168 0.8892851,-0.374486 0.8041233,-0.697674 C 2.6924806,58.850268 3.141123,58.699573 3.2644494,58.185272 3.4836043,57.270706 2.7544763,56.771684 2.979965,55.898567 3.2056196,55.025399 2.4614931,53.10671 1.5013777,54.481809"
     id="path3398"
     inkscape:connector-curvature="0"
     style="fill:#83bf4f" />
  <path
     d="m 2.9796324,55.898437 c 0.1696575,-0.654796 -0.2071557,-1.89807 -0.8107899,-1.8984 3.334e-4,3.3e-4 0.4063119,0.526681 -0.1664909,1.191606 -0.5731358,0.664975 0.4896409,0.997563 0,1.62141 -0.4898068,0.623677 0.4516423,1.224605 0.087827,1.704577 -0.4566421,0.602678 -1.16660406,0.513781 -0.7442935,1.662908 0.002,0.0048 0.004,0.0087 0.00567,0.013 0.1719906,-0.104796 0.1791574,-0.389286 0.6989621,-0.028 0.7801252,0.54168 0.8892861,-0.374686 0.8041233,-0.697674 -0.162658,-0.617777 0.2859844,-0.768472 0.4093118,-1.282773 0.2193219,-0.914766 -0.5098061,-1.413758 -0.2843184,-2.286705"
     id="path3400"
     inkscape:connector-curvature="0"
     style="fill:#699635" />
  <g
     id="g3494"
     transform="matrix(0.16665773,0,0,0.16665773,-7.3598128,54.000037)">
    <path
       d="m 57.827,11.161 c -0.747,0 0.365,-0.606 0.365,-1.354 0,-0.748 -1.112,-1.354 -0.365,-1.354 0.748,0 1.354,0.606 1.354,1.354 0,0.748 -0.606,1.354 -1.354,1.354"
       id="path3404"
       inkscape:connector-curvature="0"
       style="fill:#83bf4f" />
    <path
       d="m 59.56,23.26 c -1.111,0 0.633,-0.9 0.633,-2.01 0,-1.11 -1.744,-2.01 -0.633,-2.01 1.107,0 2.01,0.9 2.01,2.01 0,1.11 -0.9,2.01 -2.01,2.01"
       id="path3406"
       inkscape:connector-curvature="0"
       style="fill:#83bf4f" />
    <path
       d="m 57.811,33.5 c -0.83,0 0,-0.671 0,-1.5 0,-0.829 -0.83,-1.5 0,-1.5 0.828,0 1.499,0.671 1.499,1.5 0,0.829 -0.671,1.5 -1.499,1.5"
       id="path3408"
       inkscape:connector-curvature="0"
       style="fill:#83bf4f" />
  </g>
  <g
     id="g4301"
     transform="matrix(0.16665773,0,0,0.16665773,-7.3598128,54.000037)">
    <path
       d="m 49.34,12.1 c 0.826,0 -0.25,0.671 -0.25,1.5 0,0.829 1.076,1.5 0.25,1.5 -0.826,0 -1.499,-0.671 -1.499,-1.5 0,-0.829 0.673,-1.5 1.499,-1.5"
       id="path3410"
       inkscape:connector-curvature="0"
       style="fill:#699635;fill-opacity:1" />
    <path
       d="m 52.56,6.421 c 1.119,0 -0.546,0.909 -0.546,2.031 0,1.122 1.665,2.031 0.546,2.031 -1.122,0 -2.032,-0.909 -2.032,-2.031 0,-1.122 0.91,-2.031 2.032,-2.031"
       id="path3412"
       inkscape:connector-curvature="0"
       style="fill:#699635;fill-opacity:1" />
    <path
       d="m 51.663,21.637 c 1.657,0 -0.653,1.344 -0.653,3 0,1.656 2.311,3 0.653,3 -1.652,0 -2.996,-1.344 -2.996,-3 0,-1.656 1.344,-3 2.996,-3"
       id="path3416"
       inkscape:connector-curvature="0"
       style="fill:#699635" />
    <path
       d="m 52.598,16.13 c 0.827,0 0,0.671 0,1.5 0,0.829 0.827,1.5 0,1.5 -0.828,0 -1.5,-0.671 -1.5,-1.5 0,-0.829 0.672,-1.5 1.5,-1.5"
       id="path3418"
       inkscape:connector-curvature="0"
       style="fill:#699635" />
  </g>
</svg>
